{
	"asset":{
		"generator":"Khronos glTF Blender I/O v4.1.62",
		"version":"2.0"
	},
	"scene":0,
	"scenes":[
		{
			"name":"Scene",
			"nodes":[
				0
			]
		}
	],
	"nodes":[
		{
			"mesh":0,
			"name":"Mesh_0.001"
		}
	],
	"materials":[
		{
			"name":"Material_0.001",
			"normalTexture":{
				"index":0
			},
			"occlusionTexture":{
				"index":1
			},
			"pbrMetallicRoughness":{
				"baseColorTexture":{
					"index":2
				},
				"metallicFactor":0
			}
		}
	],
	"meshes":[
		{
			"name":"Mesh_0.001",
			"primitives":[
				{
					"attributes":{
						"POSITION":0,
						"NORMAL":1,
						"TEXCOORD_0":2
					},
					"indices":3,
					"material":0
				}
			]
		}
	],
	"textures":[
		{
			"sampler":0,
			"source":0
		},
		{
			"sampler":0,
			"source":1
		},
		{
			"sampler":0,
			"source":2
		}
	],
	"images":[
		{
			"mimeType":"image/jpeg",
			"name":"Image_0",
			"uri":"Image_0.jpg"
		},
		{
			"mimeType":"image/jpeg",
			"name":"Image_1",
			"uri":"Image_1.jpg"
		},
		{
			"mimeType":"image/jpeg",
			"name":"Image_2",
			"uri":"Image_2.jpg"
		}
	],
	"accessors":[
		{
			"bufferView":0,
			"componentType":5126,
			"count":89600,
			"max":[
				0.3190222978591919,
				2.313180446624756,
				0.06119472160935402
			],
			"min":[
				-0.5612888336181641,
				0.023468732833862305,
				-0.5309687256813049
			],
			"type":"VEC3"
		},
		{
			"bufferView":1,
			"componentType":5126,
			"count":89600,
			"type":"VEC3"
		},
		{
			"bufferView":2,
			"componentType":5126,
			"count":89600,
			"type":"VEC2"
		},
		{
			"bufferView":3,
			"componentType":5125,
			"count":89682,
			"type":"SCALAR"
		}
	],
	"bufferViews":[
		{
			"buffer":0,
			"byteLength":1075200,
			"byteOffset":0,
			"target":34962
		},
		{
			"buffer":0,
			"byteLength":1075200,
			"byteOffset":1075200,
			"target":34962
		},
		{
			"buffer":0,
			"byteLength":716800,
			"byteOffset":2150400,
			"target":34962
		},
		{
			"buffer":0,
			"byteLength":358728,
			"byteOffset":2867200,
			"target":34963
		}
	],
	"samplers":[
		{
			"magFilter":9729,
			"minFilter":9987
		}
	],
	"buffers":[
		{
			"byteLength":3225928,
			"uri":"Stroganov.bin"
		}
	]
}
